<?xml version="1.0" encoding="utf-8"?>
<!DOCTYPE svg PUBLIC "-//W3C//DTD SVG 1.1//EN" 
"http://www.w3.org/Graphics/SVG/1.1/DTD/svg11.dtd">

<svg id="root" width="800" height="600" viewBox="0 0 800 600" version="1.1" xmlns="http://www.w3.org/2000/svg">

<g id="map" transform="translate(0,0)">
<g id="provinces"  style="fill:#FEFFEC;stroke:#103667;stroke-opacity:0.70;fill-opacity:1;stroke-width:2.5">
  <polyline id="xinjiang"      points="215.5,68.5 215.5,56.5 219.5,52.5 227.5,52.5 230.5,51.5 231.5,51.5 233.5,48.5 233.5,45.5 236.5,45.5 243.5,51.5 242.5,60.5 247.5,61.5 246.5,64.5 247.5,66.5 249.5,68.5 254.5,70.5 257.5,73.5 265.5,77.5 268.5,77.5 265.5,87.5 269.5,90.5 269.5,94.5 269.5,96.5 269.5,102.5 261.5,107.5 261.5,115.5 265.5,117.5 268.5,119.5 272.5,119.5 276.5,120.5 278.5,120.5 285.5,123.5 289.5,123.5 294.5,128.5 299.5,129.5 308.5,138.5 313.5,140.5 315.5,144.5 316.5,151.5 316.5,157.5 319.5,167.5 320.5,170.5 319.5,175.5 316.5,176.5 277.5,188.5 275.5,212.5 265.5,212.5 256.5,213.5 250.5,214.5 250.5,216.5 243.5,216.5 242.5,214.5 234.5,214.5 227.5,217.5 223.5,220.5 221.5,225.5 220.5,227.5 225.5,229.5 232.5,234.5 233.5,235.5 231.5,238.5 228.5,242.5 224.5,246.5 224.5,246.5 231.5,247.5 228.5,250.5 223.5,251.5 219.5,251.5 210.5,247.5 201.5,246.5 196.5,244.5 187.5,238.5 181.5,237.5 176.5,234.5 169.5,237.5 154.5,237.5 147.5,242.5 145.5,241.5 131.5,241.5 130.5,243.5 121.5,239.5 120.5,234.5 113.5,229.5 105.5,227.5 98.5,226.5 92.5,229.5 90.5,231.5 77.5,226.5 72.5,224.5 68.5,227.5 63.5,233.5 50.5,233.5 45.5,230.5 40.5,225.5 38.5,220.5 39.5,212.5 40.5,208.5 36.5,205.5 31.5,204.5 24.5,196.5 23.5,191.5 23.5,189.5 25.5,180.5 21.5,176.5 19.5,176.5 19.5,172.5 16.5,170.5 10.5,165.5 16.5,163.5 18.5,159.5 18.5,158.5 15.5,151.5 19.5,145.5 18.5,140.5 12.5,140.5 8.5,138.5 6.5,134.5 15.5,127.5 19.5,121.5 23.5,121.5 46.5,121.5 54.5,128.5 60.5,128.5 65.5,123.5 68.5,121.5 70.5,124.5 85.5,124.5 89.5,121.5 97.5,120.5 98.5,123.5 113.5,123.5 119.5,119.5 120.5,116.5 120.5,112.5 124.5,108.5 129.5,106.5 129.5,91.5 134.5,90.5 134.5,78.5 136.5,78.5 149.5,79.5 156.5,85.5 160.5,85.5 163.5,82.5 163.5,77.5 176.5,61.5 176.5,58.5 183.5,62.5 195.5,68.5 198.5,69.5 212.5,69.5 213.5,69.5 215.5,53.5 219.5,52.5 226.5,52.5 231.5,51.5 232.5,48.5 "/>
  <polyline id="heilongjiang"  points="625.5,11.5 630.5,18.5 625.5,24.5 628.5,28.5 642.5,28.5 646.5,39.5 648.5,44.5 653.5,44.5 655.5,37.5 660.5,37.5 662.5,37.5 672.5,34.5 679.5,40.5 679.5,45.5 675.5,58.5 675.5,64.5 677.5,69.5 677.5,74.5 675.5,86.5 671.5,87.5 664.5,85.5 650.5,99.5 649.5,103.5 653.5,107.5 658.5,111.5 665.5,108.5 669.5,115.5 673.5,124.5 680.5,129.5 693.5,129.5 695.5,131.5 708.5,131.5 710.5,134.5 710.5,140.5 717.5,144.5 721.5,149.5 729.5,144.5 728.5,137.5 732.5,140.5 737.5,149.5 741.5,153.5 745.5,151.5 759.5,144.5 768.5,148.5 768.5,146.5 767.5,141.5 767.5,133.5 764.5,129.5 761.5,127.5 761.5,119.5 772.5,113.5 786.5,113.5 788.5,112.5 788.5,100.5 788.5,95.5 789.5,87.5 786.5,77.5 787.5,72.5 791.5,69.5 791.5,66.5 791.5,58.5 775.5,64.5 769.5,73.5 760.5,79.5 751.5,79.5 745.5,68.5 736.5,65.5 723.5,57.5 700.5,57.5 695.5,51.5 695.5,47.5 680.5,28.5 675.5,18.5 662.5,9.5 650.5,5.5 640.5,5.5 630.5,10.5 626.5,11.5 "/>
  <polyline id="jilin"         points="667.5,111.5 661.5,116.5 656.5,120.5 660.5,123.5 660.5,125.5 654.5,128.5 648.5,124.5 646.5,127.5 646.5,133.5 650.5,136.5 650.5,146.5 653.5,149.5 654.5,157.5 667.5,146.5 671.5,158.5 675.5,166.5 684.5,168.5 685.5,175.5 687.5,175.5 692.5,172.5 694.5,172.5 701.5,180.5 702.5,184.5 702.5,193.5 706.5,193.5 709.5,197.5 716.5,187.5 719.5,186.5 727.5,188.5 736.5,187.5 735.5,179.5 735.5,174.5 746.5,172.5 756.5,158.5 760.5,158.5 764.5,155.5 772.5,151.5 769.5,145.5 764.5,145.5 758.5,142.5 745.5,146.5 743.5,151.5 739.5,151.5 728.5,138.5 728.5,142.5 726.5,146.5 720.5,146.5 715.5,141.5 710.5,138.5 710.5,133.5 704.5,127.5 698.5,132.5 693.5,128.5 682.5,129.5 675.5,127.5 671.5,119.5 667.5,112.5 "/>
  <polyline id="liaoning"      points="675.5,166.5 673.5,172.5 672.5,176.5 661.5,176.5 641.5,192.5 635.5,197.5 628.5,186.5 624.5,186.5 623.5,191.5 621.5,196.5 624.5,203.5 621.5,205.5 620.5,214.5 626.5,217.5 632.5,221.5 638.5,218.5 646.5,209.5 650.5,204.5 660.5,204.5 662.5,208.5 662.5,213.5 655.5,224.5 655.5,226.5 661.5,230.5 660.5,234.5 652.5,238.5 654.5,243.5 662.5,237.5 665.5,230.5 695.5,217.5 695.5,206.5 707.5,201.5 707.5,195.5 701.5,191.5 705.5,182.5 692.5,170.5 690.5,174.5 687.5,174.5 683.5,166.5 677.5,166.5 673.5,166.5 "/>
  <polyline id="hebei"         points="608.5,237.5 619.5,237.5 625.5,231.5 631.5,226.5 633.5,222.5 627.5,216.5 620.5,217.5 620.5,204.5 610.5,204.5 609.5,201.5 609.5,196.5 603.5,186.5 591.5,188.5 590.5,191.5 582.5,195.5 580.5,192.5 572.5,195.5 567.5,196.5 561.5,188.5 558.5,188.5 549.5,203.5 549.5,210.5 553.5,213.5 557.5,220.5 557.5,222.5 553.5,229.5 558.5,235.5 558.5,239.5 547.5,244.5 547.5,250.5 547.5,258.5 552.5,267.5 552.5,275.5 547.5,284.5 547.5,285.5 564.5,285.5 566.5,289.5 572.5,289.5 572.5,293.5 580.5,296.5 583.5,290.5 580.5,284.5 580.5,267.5 584.5,267.5 588.5,267.5 593.5,260.5 602.5,260.5 611.5,255.5 603.5,246.5 609.5,235.5 "/>
  <polyline id="tianjin"       points="588.5,235.5 590.5,239.5 590.5,242.5 589.5,246.5 601.5,247.5 604.5,247.5 606.5,241.5 606.5,237.5 606.5,234.5 604.5,233.5 598.5,229.5 595.5,230.5 590.5,231.5 589.5,235.5 "/>
  <polyline id="beijing"       points="598.5,227.5 595.5,231.5 589.5,231.5 589.5,237.5 588.5,234.5 575.5,234.5 573.5,231.5 574.5,225.5 579.5,221.5 576.5,213.5 580.5,208.5 590.5,208.5 598.5,212.5 597.5,214.5 598.5,220.5 598.5,227.5 "/>
  <polyline id="jiangsu"       points="632.5,303.5 627.5,307.5 627.5,311.5 618.5,313.5 615.5,310.5 609.5,311.5 601.5,309.5 598.5,307.5 593.5,307.5 588.5,309.5 587.5,313.5 593.5,313.5 598.5,314.5 602.5,320.5 608.5,320.5 611.5,323.5 615.5,326.5 617.5,326.5 617.5,330.5 616.5,334.5 616.5,334.5 624.5,337.5 625.5,340.5 634.5,337.5 635.5,340.5 635.5,345.5 632.5,345.5 628.5,345.5 628.5,349.5 625.5,352.5 626.5,360.5 632.5,365.5 636.5,366.5 645.5,368.5 646.5,372.5 650.5,369.5 658.5,370.5 664.5,370.5 669.5,369.5 668.5,365.5 667.5,360.5 671.5,357.5 671.5,352.5 679.5,352.5 673.5,339.5 663.5,339.5 662.5,334.5 653.5,322.5 653.5,313.5 643.5,310.5 634.5,309.5 630.5,302.5 "/>
  <polyline id="shanghai"      points="670.5,356.5 676.5,361.5 677.5,361.5 679.5,365.5 683.5,370.5 680.5,368.5 677.5,370.5 673.5,370.5 668.5,369.5 668.5,365.5 668.5,362.5 668.5,360.5 670.5,355.5 "/>
  <polyline id="shandong"      points="611.5,255.5 603.5,262.5 595.5,262.5 590.5,267.5 587.5,268.5 579.5,267.5 579.5,277.5 582.5,286.5 584.5,292.5 578.5,297.5 571.5,301.5 568.5,305.5 575.5,311.5 579.5,311.5 580.5,315.5 584.5,313.5 588.5,310.5 589.5,307.5 595.5,307.5 603.5,310.5 610.5,314.5 616.5,313.5 620.5,313.5 628.5,309.5 631.5,306.5 632.5,301.5 662.5,271.5 667.5,268.5 670.5,268.5 675.5,268.5 678.5,260.5 678.5,259.5 670.5,259.5 660.5,260.5 654.5,258.5 647.5,255.5 642.5,260.5 642.5,264.5 636.5,265.5 631.5,267.5 625.5,265.5 625.5,259.5 618.5,256.5 610.5,256.5 "/>
  <polyline id="anhui"         points="588.5,309.5 586.5,313.5 588.5,317.5 593.5,319.5 595.5,319.5 595.5,326.5 589.5,326.5 586.5,322.5 581.5,320.5 580.5,326.5 580.5,331.5 576.5,331.5 575.5,334.5 573.5,335.5 569.5,335.5 569.5,340.5 576.5,343.5 575.5,345.5 580.5,349.5 587.5,349.5 586.5,357.5 581.5,358.5 581.5,368.5 587.5,372.5 590.5,373.5 586.5,378.5 588.5,383.5 589.5,390.5 595.5,391.5 602.5,387.5 603.5,390.5 602.5,393.5 602.5,398.5 606.5,395.5 606.5,390.5 612.5,390.5 618.5,396.5 625.5,396.5 630.5,391.5 634.5,386.5 635.5,382.5 640.5,379.5 642.5,373.5 643.5,368.5 635.5,365.5 631.5,361.5 626.5,356.5 627.5,351.5 627.5,347.5 628.5,343.5 632.5,344.5 636.5,344.5 634.5,339.5 633.5,335.5 630.5,337.5 626.5,339.5 624.5,339.5 620.5,336.5 615.5,334.5 617.5,330.5 616.5,324.5 611.5,323.5 606.5,319.5 603.5,319.5 598.5,315.5 594.5,313.5 590.5,311.5 588.5,311.5 586.5,311.5 "/>
  <polyline id="zhejiang"      points="672.5,372.5 668.5,369.5 662.5,372.5 658.5,372.5 649.5,369.5 648.5,365.5 645.5,369.5 643.5,375.5 642.5,378.5 634.5,379.5 634.5,385.5 631.5,391.5 623.5,395.5 624.5,404.5 630.5,407.5 631.5,412.5 636.5,412.5 636.5,417.5 635.5,420.5 639.5,423.5 641.5,421.5 641.5,417.5 646.5,416.5 648.5,421.5 652.5,424.5 655.5,425.5 655.5,425.5 657.5,428.5 661.5,425.5 665.5,425.5 668.5,431.5 669.5,421.5 673.5,412.5 677.5,408.5 682.5,410.5 683.5,402.5 683.5,383.5 687.5,382.5 687.5,379.5 682.5,379.5 678.5,379.5 663.5,378.5 663.5,374.5 670.5,373.5 675.5,372.5 668.5,369.5 "/>
  <polyline id="hunan"         points="554.5,404.5 563.5,411.5 564.5,416.5 558.5,421.5 556.5,427.5 553.5,433.5 557.5,436.5 560.5,444.5 560.5,454.5 560.5,463.5 556.5,465.5 553.5,468.5 547.5,468.5 545.5,467.5 544.5,474.5 538.5,474.5 532.5,474.5 527.5,475.5 517.5,478.5 513.5,475.5 509.5,474.5 512.5,468.5 515.5,457.5 509.5,453.5 502.5,453.5 497.5,457.5 492.5,454.5 487.5,458.5 484.5,459.5 482.5,458.5 482.5,446.5 484.5,438.5 484.5,436.5 477.5,438.5 475.5,436.5 476.5,433.5 483.5,432.5 484.5,407.5 491.5,396.5 497.5,394.5 501.5,395.5 501.5,387.5 508.5,387.5 516.5,390.5 523.5,394.5 531.5,394.5 551.5,394.5 553.5,396.5 553.5,402.5 559.5,408.5 "/>
  <polyline id="shanxi1"       points="549.5,221.5 550.5,217.5 551.5,210.5 558.5,218.5 558.5,222.5 552.5,227.5 559.5,237.5 559.5,241.5 547.5,243.5 547.5,256.5 552.5,267.5 552.5,277.5 547.5,282.5 547.5,293.5 550.5,293.5 549.5,298.5 542.5,301.5 527.5,301.5 522.5,309.5 513.5,313.5 498.5,314.5 498.5,310.5 505.5,303.5 507.5,296.5 507.5,277.5 507.5,268.5 505.5,260.5 512.5,247.5 519.5,233.5 527.5,233.5 531.5,220.5 543.5,220.5 550.5,218.5 "/>
  <polyline id="chongqing"     points="468.5,360.5 469.5,357.5 465.5,355.5 470.5,353.5 475.5,352.5 482.5,358.5 484.5,358.5 493.5,362.5 498.5,366.5 497.5,374.5 486.5,378.5 478.5,378.5 475.5,378.5 473.5,385.5 470.5,389.5 480.5,399.5 477.5,402.5 483.5,408.5 483.5,417.5 476.5,417.5 471.5,408.5 464.5,404.5 457.5,404.5 454.5,404.5 455.5,407.5 456.5,410.5 454.5,411.5 447.5,406.5 445.5,406.5 442.5,411.5 438.5,411.5 433.5,408.5 428.5,406.5 428.5,402.5 427.5,398.5 424.5,396.5 423.5,393.5 426.5,387.5 425.5,382.5 432.5,379.5 433.5,382.5 439.5,382.5 442.5,385.5 447.5,382.5 452.5,374.5 462.5,370.5 469.5,358.5 "/>
  <polyline id="hubei"         points="509.5,337.5 517.5,345.5 526.5,348.5 529.5,349.5 538.5,352.5 544.5,352.5 546.5,352.5 549.5,349.5 553.5,349.5 553.5,355.5 554.5,358.5 566.5,360.5 569.5,366.5 576.5,369.5 582.5,369.5 590.5,372.5 588.5,378.5 586.5,378.5 589.5,387.5 589.5,390.5 581.5,391.5 578.5,393.5 571.5,399.5 558.5,406.5 554.5,403.5 553.5,396.5 551.5,394.5 532.5,395.5 528.5,395.5 524.5,394.5 519.5,391.5 515.5,389.5 513.5,389.5 502.5,389.5 501.5,394.5 500.5,395.5 494.5,395.5 487.5,400.5 482.5,406.5 477.5,402.5 480.5,398.5 473.5,394.5 470.5,390.5 472.5,383.5 472.5,379.5 480.5,377.5 486.5,378.5 495.5,373.5 495.5,364.5 491.5,361.5 491.5,356.5 490.5,352.5 486.5,349.5 499.5,349.5 499.5,347.5 487.5,334.5 494.5,336.5 502.5,336.5 506.5,337.5 510.5,337.5 "/>
  <polyline id="shanxi3"       points="513.5,241.5 509.5,252.5 506.5,259.5 505.5,264.5 508.5,267.5 508.5,276.5 507.5,294.5 508.5,297.5 508.5,302.5 502.5,303.5 498.5,313.5 504.5,315.5 504.5,326.5 512.5,334.5 510.5,339.5 504.5,335.5 493.5,336.5 490.5,340.5 499.5,347.5 495.5,349.5 487.5,349.5 492.5,358.5 494.5,362.5 483.5,360.5 473.5,352.5 469.5,352.5 464.5,353.5 462.5,351.5 461.5,347.5 454.5,347.5 452.5,344.5 439.5,344.5 436.5,339.5 435.5,336.5 432.5,331.5 440.5,328.5 447.5,324.5 450.5,319.5 450.5,314.5 447.5,311.5 448.5,306.5 453.5,306.5 455.5,309.5 465.5,309.5 465.5,306.5 465.5,305.5 465.5,301.5 472.5,302.5 478.5,303.5 479.5,301.5 479.5,297.5 478.5,292.5 480.5,285.5 477.5,284.5 468.5,279.5 464.5,277.5 461.5,273.5 461.5,269.5 461.5,264.5 465.5,264.5 473.5,264.5 476.5,265.5 483.5,267.5 486.5,263.5 492.5,252.5 492.5,247.5 508.5,238.5 512.5,237.5 512.5,241.5 512.5,244.5 "/>
  <polyline id="guangdong"     points="526.5,476.5 527.5,492.5 522.5,493.5 517.5,499.5 517.5,506.5 514.5,506.5 514.5,516.5 506.5,521.5 504.5,524.5 495.5,526.5 494.5,531.5 487.5,531.5 484.5,535.5 485.5,537.5 483.5,542.5 486.5,550.5 489.5,552.5 502.5,554.5 502.5,550.5 499.5,548.5 495.5,544.5 495.5,541.5 499.5,538.5 501.5,534.5 506.5,531.5 517.5,530.5 530.5,530.5 542.5,530.5 546.5,525.5 550.5,526.5 553.5,524.5 552.5,510.5 556.5,509.5 559.5,512.5 563.5,518.5 566.5,522.5 569.5,524.5 573.5,518.5 572.5,512.5 582.5,510.5 584.5,513.5 590.5,513.5 589.5,508.5 596.5,508.5 598.5,510.5 602.5,508.5 608.5,505.5 611.5,501.5 612.5,497.5 616.5,495.5 611.5,486.5 611.5,479.5 609.5,476.5 598.5,475.5 595.5,474.5 591.5,475.5 591.5,479.5 587.5,479.5 574.5,476.5 572.5,478.5 565.5,476.5 569.5,474.5 573.5,468.5 568.5,466.5 564.5,466.5 559.5,463.5 553.5,468.5 552.5,468.5 547.5,466.5 543.5,467.5 543.5,472.5 539.5,475.5 535.5,474.5 532.5,471.5 526.5,478.5 "/>
  <polyline id="guangxi"       points="409.5,471.5 417.5,478.5 424.5,478.5 438.5,471.5 446.5,462.5 455.5,470.5 455.5,472.5 460.5,468.5 460.5,463.5 464.5,462.5 467.5,467.5 470.5,466.5 473.5,466.5 476.5,466.5 476.5,461.5 482.5,458.5 487.5,458.5 491.5,454.5 494.5,455.5 500.5,455.5 505.5,453.5 510.5,453.5 515.5,458.5 515.5,462.5 509.5,470.5 510.5,474.5 513.5,474.5 519.5,478.5 526.5,478.5 528.5,492.5 517.5,496.5 517.5,505.5 515.5,510.5 512.5,514.5 505.5,524.5 500.5,526.5 497.5,526.5 494.5,531.5 489.5,533.5 486.5,535.5 479.5,531.5 472.5,530.5 468.5,526.5 465.5,524.5 461.5,526.5 456.5,529.5 438.5,527.5 435.5,524.5 432.5,521.5 432.5,512.5 436.5,509.5 431.5,506.5 423.5,506.5 418.5,504.5 415.5,501.5 415.5,497.5 418.5,495.5 426.5,493.5 426.5,486.5 415.5,484.5 408.5,482.5 404.5,476.5 409.5,471.5 412.5,471.5 "/>
  <polyline id="taiwan"        points="685.5,459.5 692.5,462.5 697.5,462.5 697.5,465.5 697.5,468.5 694.5,475.5 693.5,480.5 695.5,487.5 692.5,488.5 692.5,497.5 685.5,506.5 686.5,514.5 684.5,518.5 682.5,520.5 679.5,510.5 675.5,510.5 665.5,501.5 665.5,492.5 670.5,480.5 672.5,476.5 675.5,472.5 680.5,465.5 686.5,459.5 "/>
  <polyline id="hainan"        points="510.5,564.5 509.5,562.5 505.5,562.5 499.5,559.5 495.5,559.5 491.5,560.5 486.5,560.5 484.5,559.5 476.5,560.5 472.5,565.5 465.5,569.5 465.5,579.5 465.5,585.5 475.5,592.5 478.5,590.5 480.5,590.5 484.5,589.5 485.5,588.5 489.5,588.5 492.5,585.5 494.5,581.5 499.5,581.5 499.5,575.5 501.5,571.5 506.5,567.5 510.5,565.5 "/>
  <polyline id="sichuan"       points="301.5,324.5 313.5,335.5 312.5,343.5 320.5,351.5 314.5,353.5 320.5,365.5 320.5,370.5 320.5,378.5 323.5,382.5 317.5,390.5 319.5,398.5 315.5,403.5 319.5,411.5 322.5,413.5 326.5,408.5 334.5,404.5 331.5,411.5 338.5,423.5 337.5,419.5 347.5,419.5 365.5,437.5 359.5,441.5 359.5,449.5 368.5,446.5 374.5,448.5 379.5,429.5 388.5,423.5 391.5,417.5 403.5,412.5 402.5,420.5 406.5,423.5 411.5,420.5 418.5,423.5 417.5,425.5 428.5,425.5 433.5,421.5 426.5,416.5 424.5,407.5 430.5,404.5 427.5,399.5 421.5,395.5 427.5,390.5 425.5,383.5 433.5,381.5 434.5,383.5 443.5,383.5 448.5,383.5 456.5,372.5 462.5,370.5 468.5,361.5 470.5,360.5 469.5,356.5 467.5,356.5 469.5,351.5 463.5,351.5 458.5,347.5 452.5,345.5 439.5,344.5 434.5,337.5 430.5,339.5 425.5,341.5 420.5,345.5 415.5,344.5 409.5,336.5 401.5,332.5 394.5,322.5 391.5,320.5 391.5,317.5 386.5,314.5 380.5,318.5 375.5,315.5 369.5,310.5 364.5,305.5 359.5,305.5 359.5,311.5 364.5,315.5 368.5,320.5 375.5,324.5 380.5,324.5 380.5,328.5 379.5,332.5 374.5,332.5 368.5,331.5 364.5,328.5 359.5,334.5 351.5,336.5 346.5,331.5 341.5,322.5 331.5,323.5 322.5,320.5 305.5,317.5 301.5,320.5 302.5,327.5 "/>
  <polyline id="neimenggu"     points="626.5,10.5 630.5,17.5 626.5,26.5 631.5,31.5 635.5,30.5 643.5,30.5 642.5,36.5 647.5,41.5 652.5,45.5 656.5,41.5 656.5,37.5 661.5,37.5 670.5,32.5 675.5,36.5 678.5,40.5 678.5,49.5 675.5,56.5 675.5,62.5 677.5,69.5 675.5,74.5 675.5,82.5 671.5,87.5 668.5,85.5 664.5,82.5 654.5,95.5 649.5,98.5 649.5,103.5 656.5,110.5 667.5,107.5 668.5,112.5 661.5,115.5 656.5,119.5 660.5,121.5 655.5,127.5 652.5,127.5 647.5,124.5 645.5,132.5 650.5,133.5 650.5,149.5 653.5,149.5 653.5,154.5 657.5,154.5 669.5,146.5 669.5,154.5 672.5,158.5 673.5,163.5 675.5,166.5 675.5,170.5 671.5,176.5 662.5,176.5 653.5,182.5 647.5,188.5 643.5,192.5 641.5,196.5 634.5,197.5 627.5,187.5 624.5,187.5 624.5,191.5 621.5,191.5 621.5,196.5 624.5,203.5 621.5,205.5 613.5,205.5 610.5,203.5 608.5,200.5 608.5,196.5 603.5,189.5 602.5,186.5 594.5,186.5 591.5,191.5 589.5,192.5 580.5,192.5 574.5,195.5 567.5,195.5 563.5,189.5 558.5,189.5 550.5,199.5 547.5,204.5 547.5,209.5 552.5,212.5 549.5,214.5 547.5,220.5 535.5,220.5 531.5,221.5 524.5,234.5 516.5,238.5 512.5,242.5 510.5,237.5 504.5,238.5 492.5,247.5 487.5,260.5 484.5,265.5 475.5,267.5 471.5,264.5 464.5,262.5 453.5,255.5 455.5,243.5 455.5,233.5 453.5,229.5 445.5,237.5 438.5,251.5 436.5,262.5 436.5,264.5 426.5,264.5 415.5,265.5 409.5,262.5 406.5,248.5 415.5,243.5 418.5,237.5 408.5,230.5 408.5,227.5 401.5,234.5 395.5,237.5 384.5,237.5 373.5,233.5 369.5,231.5 363.5,227.5 358.5,218.5 358.5,216.5 364.5,212.5 368.5,208.5 363.5,203.5 351.5,200.5 344.5,204.5 341.5,208.5 328.5,192.5 328.5,188.5 330.5,180.5 330.5,174.5 330.5,170.5 343.5,172.5 357.5,175.5 367.5,176.5 378.5,179.5 390.5,179.5 395.5,186.5 408.5,191.5 417.5,193.5 425.5,195.5 425.5,197.5 434.5,199.5 443.5,193.5 491.5,193.5 499.5,191.5 505.5,183.5 528.5,165.5 516.5,161.5 516.5,153.5 521.5,149.5 531.5,148.5 536.5,153.5 543.5,153.5 546.5,154.5 556.5,144.5 560.5,142.5 573.5,140.5 583.5,124.5 591.5,124.5 600.5,123.5 611.5,120.5 618.5,121.5 623.5,121.5 623.5,116.5 613.5,108.5 606.5,99.5 598.5,95.5 593.5,95.5 590.5,100.5 589.5,102.5 582.5,99.5 571.5,102.5 567.5,102.5 567.5,95.5 571.5,89.5 575.5,82.5 574.5,75.5 574.5,72.5 593.5,70.5 601.5,68.5 606.5,66.5 605.5,58.5 606.5,57.5 610.5,49.5 613.5,41.5 616.5,39.5 621.5,35.5 620.5,30.5 619.5,26.5 616.5,22.5 609.5,20.5 621.5,11.5 626.5,11.5 "/>
  <polyline id="qinghai"       points="273.5,212.5 265.5,213.5 262.5,213.5 255.5,213.5 254.5,214.5 249.5,214.5 248.5,216.5 242.5,216.5 240.5,214.5 233.5,214.5 232.5,217.5 226.5,217.5 224.5,218.5 223.5,222.5 220.5,226.5 220.5,227.5 226.5,229.5 232.5,231.5 233.5,234.5 232.5,239.5 228.5,243.5 224.5,246.5 227.5,247.5 228.5,250.5 220.5,254.5 217.5,252.5 210.5,247.5 206.5,247.5 204.5,250.5 202.5,254.5 202.5,255.5 206.5,256.5 209.5,256.5 208.5,258.5 202.5,268.5 200.5,272.5 196.5,275.5 196.5,280.5 197.5,282.5 197.5,286.5 198.5,292.5 201.5,296.5 200.5,300.5 206.5,301.5 211.5,302.5 216.5,302.5 218.5,305.5 221.5,306.5 227.5,311.5 235.5,315.5 260.5,323.5 265.5,326.5 267.5,327.5 269.5,332.5 273.5,334.5 273.5,337.5 278.5,339.5 283.5,339.5 285.5,339.5 291.5,334.5 293.5,327.5 295.5,326.5 299.5,326.5 302.5,319.5 306.5,318.5 314.5,317.5 319.5,319.5 323.5,319.5 324.5,319.5 330.5,324.5 335.5,324.5 341.5,322.5 343.5,322.5 345.5,326.5 345.5,328.5 347.5,331.5 347.5,335.5 354.5,336.5 358.5,336.5 364.5,330.5 368.5,330.5 372.5,332.5 378.5,332.5 381.5,331.5 380.5,326.5 381.5,320.5 381.5,317.5 378.5,317.5 373.5,311.5 374.5,306.5 375.5,302.5 387.5,296.5 388.5,292.5 394.5,288.5 395.5,281.5 395.5,277.5 397.5,275.5 396.5,269.5 388.5,263.5 387.5,260.5 386.5,255.5 384.5,254.5 380.5,252.5 375.5,254.5 375.5,250.5 373.5,248.5 364.5,244.5 359.5,242.5 359.5,241.5 360.5,238.5 360.5,233.5 357.5,233.5 350.5,233.5 338.5,227.5 335.5,224.5 330.5,226.5 326.5,226.5 320.5,225.5 316.5,224.5 308.5,229.5 307.5,227.5 300.5,225.5 300.5,222.5 290.5,221.5 287.5,216.5 282.5,214.5 277.5,213.5 273.5,212.5 "/>
  <polyline id="gansu"         points="320.5,168.5 328.5,168.5 331.5,170.5 331.5,178.5 330.5,183.5 329.5,187.5 329.5,192.5 335.5,197.5 337.5,204.5 342.5,206.5 347.5,203.5 354.5,199.5 359.5,204.5 368.5,205.5 371.5,208.5 363.5,212.5 360.5,213.5 359.5,218.5 358.5,221.5 371.5,234.5 376.5,235.5 384.5,235.5 398.5,238.5 404.5,227.5 412.5,227.5 417.5,235.5 419.5,241.5 417.5,243.5 408.5,248.5 409.5,260.5 415.5,264.5 424.5,264.5 430.5,264.5 424.5,269.5 426.5,275.5 428.5,282.5 428.5,288.5 430.5,294.5 430.5,296.5 436.5,300.5 445.5,300.5 445.5,294.5 450.5,293.5 449.5,289.5 446.5,286.5 449.5,277.5 457.5,275.5 461.5,273.5 469.5,281.5 478.5,285.5 482.5,286.5 479.5,289.5 479.5,293.5 480.5,302.5 477.5,305.5 470.5,302.5 467.5,302.5 465.5,302.5 465.5,306.5 467.5,309.5 456.5,309.5 454.5,306.5 448.5,306.5 447.5,314.5 450.5,319.5 445.5,326.5 438.5,330.5 433.5,330.5 433.5,335.5 435.5,340.5 432.5,339.5 423.5,344.5 413.5,344.5 404.5,334.5 400.5,332.5 391.5,322.5 391.5,315.5 386.5,314.5 382.5,318.5 373.5,310.5 375.5,302.5 384.5,297.5 394.5,285.5 396.5,272.5 387.5,260.5 384.5,252.5 376.5,255.5 371.5,248.5 360.5,242.5 361.5,239.5 357.5,233.5 350.5,235.5 334.5,225.5 326.5,227.5 317.5,222.5 310.5,230.5 306.5,229.5 300.5,221.5 289.5,222.5 283.5,213.5 276.5,213.5 275.5,210.5 277.5,189.5 317.5,178.5 320.5,168.5 327.5,168.5 "/>
  <polyline id="henan"         points="547.5,284.5 565.5,286.5 567.5,290.5 573.5,290.5 574.5,294.5 579.5,294.5 579.5,297.5 573.5,300.5 571.5,303.5 571.5,307.5 576.5,310.5 579.5,314.5 583.5,317.5 586.5,314.5 589.5,318.5 594.5,319.5 595.5,324.5 590.5,327.5 588.5,326.5 584.5,320.5 581.5,320.5 580.5,328.5 576.5,334.5 575.5,335.5 569.5,336.5 569.5,340.5 573.5,344.5 580.5,349.5 586.5,348.5 586.5,357.5 580.5,358.5 580.5,365.5 579.5,369.5 573.5,366.5 567.5,362.5 566.5,358.5 554.5,358.5 554.5,349.5 551.5,349.5 541.5,353.5 532.5,351.5 521.5,347.5 510.5,340.5 508.5,336.5 512.5,332.5 502.5,323.5 502.5,317.5 512.5,315.5 519.5,309.5 526.5,303.5 530.5,301.5 543.5,301.5 547.5,296.5 550.5,294.5 547.5,292.5 547.5,286.5 549.5,285.5 "/>
  <polyline id="yunnan"        points="317.5,389.5 313.5,389.5 313.5,394.5 305.5,394.5 305.5,403.5 300.5,406.5 297.5,408.5 305.5,417.5 306.5,424.5 300.5,441.5 286.5,453.5 276.5,458.5 276.5,467.5 273.5,468.5 273.5,475.5 282.5,474.5 284.5,472.5 299.5,472.5 299.5,487.5 302.5,489.5 309.5,491.5 312.5,493.5 302.5,506.5 308.5,510.5 316.5,513.5 321.5,520.5 324.5,520.5 330.5,518.5 334.5,524.5 336.5,529.5 346.5,529.5 347.5,524.5 346.5,508.5 352.5,508.5 356.5,509.5 363.5,506.5 367.5,512.5 369.5,510.5 379.5,508.5 386.5,508.5 393.5,508.5 412.5,496.5 416.5,496.5 419.5,496.5 426.5,495.5 426.5,484.5 419.5,484.5 410.5,483.5 405.5,478.5 401.5,475.5 400.5,470.5 403.5,465.5 400.5,458.5 404.5,454.5 404.5,442.5 395.5,442.5 394.5,444.5 391.5,441.5 391.5,431.5 406.5,431.5 417.5,424.5 416.5,421.5 410.5,417.5 410.5,421.5 404.5,421.5 402.5,416.5 402.5,408.5 388.5,420.5 378.5,425.5 378.5,432.5 375.5,436.5 375.5,446.5 369.5,446.5 366.5,446.5 360.5,446.5 356.5,446.5 359.5,437.5 364.5,437.5 363.5,433.5 345.5,417.5 336.5,419.5 330.5,408.5 335.5,406.5 332.5,404.5 328.5,406.5 323.5,407.5 323.5,412.5 322.5,415.5 316.5,406.5 316.5,396.5 320.5,395.5 320.5,390.5 316.5,390.5 "/>
  <polyline id="jiangxi"       points="588.5,390.5 579.5,391.5 576.5,396.5 564.5,402.5 557.5,407.5 564.5,416.5 561.5,420.5 553.5,425.5 556.5,436.5 558.5,444.5 561.5,444.5 560.5,455.5 559.5,461.5 561.5,465.5 565.5,467.5 573.5,467.5 573.5,471.5 563.5,476.5 572.5,478.5 575.5,476.5 586.5,476.5 588.5,478.5 590.5,478.5 595.5,474.5 591.5,471.5 593.5,466.5 595.5,462.5 597.5,459.5 602.5,453.5 604.5,449.5 605.5,446.5 603.5,441.5 604.5,438.5 611.5,437.5 612.5,433.5 609.5,429.5 624.5,423.5 627.5,420.5 632.5,412.5 630.5,407.5 623.5,403.5 625.5,394.5 617.5,394.5 609.5,390.5 606.5,390.5 606.5,395.5 603.5,395.5 601.5,393.5 602.5,387.5 600.5,387.5 595.5,391.5 588.5,390.5 "/>
  <polyline id="fujian"        points="631.5,411.5 628.5,416.5 628.5,421.5 613.5,425.5 609.5,431.5 612.5,433.5 609.5,436.5 604.5,438.5 602.5,441.5 604.5,446.5 600.5,454.5 594.5,465.5 594.5,470.5 595.5,475.5 606.5,475.5 611.5,480.5 613.5,491.5 617.5,496.5 619.5,493.5 632.5,482.5 630.5,478.5 633.5,475.5 639.5,476.5 652.5,465.5 654.5,462.5 655.5,459.5 654.5,451.5 654.5,448.5 656.5,448.5 661.5,448.5 655.5,438.5 657.5,437.5 664.5,432.5 667.5,429.5 665.5,428.5 664.5,424.5 658.5,425.5 655.5,428.5 652.5,425.5 652.5,423.5 647.5,423.5 646.5,417.5 642.5,417.5 642.5,420.5 641.5,423.5 636.5,420.5 635.5,416.5 638.5,415.5 638.5,412.5 630.5,412.5 "/>
  <polyline id="guizhou"       points="482.5,417.5 482.5,432.5 479.5,433.5 475.5,436.5 475.5,438.5 479.5,438.5 484.5,438.5 484.5,444.5 483.5,457.5 483.5,458.5 476.5,462.5 476.5,466.5 472.5,466.5 471.5,465.5 464.5,465.5 462.5,463.5 460.5,467.5 460.5,471.5 455.5,471.5 453.5,467.5 446.5,463.5 439.5,467.5 427.5,474.5 421.5,476.5 415.5,475.5 410.5,471.5 404.5,474.5 404.5,479.5 400.5,474.5 402.5,470.5 402.5,465.5 401.5,461.5 400.5,458.5 404.5,454.5 404.5,442.5 397.5,442.5 394.5,442.5 391.5,442.5 391.5,433.5 394.5,429.5 408.5,429.5 416.5,424.5 428.5,424.5 431.5,421.5 431.5,416.5 425.5,413.5 425.5,408.5 431.5,406.5 434.5,404.5 436.5,411.5 441.5,412.5 445.5,411.5 445.5,407.5 448.5,407.5 455.5,411.5 457.5,408.5 455.5,404.5 461.5,404.5 469.5,408.5 473.5,411.5 475.5,419.5 480.5,417.5 "/>
  <polyline id="xizang"        points="301.5,324.5 310.5,332.5 315.5,337.5 313.5,344.5 319.5,349.5 316.5,352.5 315.5,357.5 320.5,362.5 320.5,365.5 321.5,369.5 319.5,377.5 320.5,382.5 320.5,387.5 314.5,390.5 314.5,394.5 305.5,394.5 305.5,406.5 300.5,406.5 297.5,408.5 291.5,399.5 286.5,396.5 285.5,400.5 284.5,406.5 275.5,407.5 263.5,399.5 250.5,399.5 242.5,403.5 231.5,404.5 224.5,410.5 219.5,410.5 217.5,408.5 202.5,408.5 205.5,400.5 203.5,396.5 200.5,398.5 197.5,390.5 187.5,382.5 182.5,382.5 173.5,377.5 159.5,375.5 164.5,378.5 158.5,381.5 153.5,387.5 149.5,386.5 150.5,382.5 153.5,379.5 152.5,373.5 141.5,372.5 137.5,374.5 132.5,373.5 122.5,370.5 115.5,364.5 112.5,364.5 110.5,365.5 104.5,356.5 98.5,356.5 100.5,351.5 94.5,348.5 89.5,348.5 85.5,344.5 91.5,340.5 89.5,336.5 80.5,335.5 77.5,335.5 77.5,326.5 73.5,322.5 69.5,322.5 69.5,313.5 64.5,313.5 61.5,306.5 55.5,306.5 53.5,309.5 49.5,307.5 43.5,296.5 33.5,288.5 26.5,284.5 21.5,281.5 21.5,265.5 23.5,265.5 23.5,255.5 28.5,255.5 32.5,259.5 33.5,259.5 40.5,252.5 36.5,243.5 36.5,241.5 45.5,231.5 47.5,230.5 53.5,233.5 61.5,233.5 64.5,230.5 70.5,225.5 72.5,222.5 79.5,226.5 87.5,229.5 90.5,231.5 97.5,227.5 102.5,227.5 119.5,233.5 122.5,238.5 122.5,239.5 130.5,243.5 134.5,241.5 145.5,241.5 147.5,242.5 150.5,242.5 154.5,238.5 167.5,238.5 176.5,235.5 184.5,235.5 189.5,239.5 194.5,243.5 201.5,243.5 204.5,246.5 211.5,246.5 202.5,251.5 202.5,256.5 204.5,258.5 209.5,254.5 209.5,259.5 196.5,275.5 197.5,285.5 200.5,292.5 203.5,297.5 202.5,300.5 210.5,302.5 219.5,302.5 224.5,307.5 233.5,314.5 243.5,317.5 255.5,322.5 264.5,326.5 269.5,328.5 269.5,331.5 273.5,337.5 277.5,340.5 282.5,337.5 285.5,337.5 293.5,334.5 293.5,327.5 300.5,324.5 304.5,326.5 "/>
  <polyline id="ningxia"       points="452.5,233.5 443.5,238.5 442.5,243.5 438.5,250.5 438.5,258.5 434.5,260.5 434.5,264.5 430.5,265.5 426.5,269.5 425.5,269.5 430.5,277.5 430.5,282.5 428.5,285.5 430.5,292.5 428.5,294.5 432.5,298.5 438.5,300.5 446.5,301.5 447.5,298.5 445.5,296.5 450.5,294.5 450.5,289.5 446.5,288.5 446.5,282.5 449.5,276.5 456.5,275.5 461.5,275.5 461.5,269.5 461.5,264.5 465.5,264.5 461.5,260.5 453.5,255.5 453.5,252.5 456.5,242.5 456.5,235.5 456.5,233.5 455.5,230.5 450.5,233.5 "/>
</g>



</g>

<rect id="svgMask" x="0" y="0" width="800" height="600" fill="none" style="fill-opacity:0;stroke:none" onclick="svgScale(evt)"/>
</svg>
